o convex_0
v 25.420270 -1.104592 -4.456482
v 23.105379 5.916920 0.250130
v 23.663278 5.596861 0.090683
v 5.951937 -3.498633 4.878765
v 5.951937 2.405582 -5.493473
v 5.950000 5.118518 3.123678
v 23.025956 -0.784533 5.916920
v 5.951937 -5.733226 -1.742382
v 23.025956 -5.892674 0.968226
v 22.946533 -3.417163 -4.934825
v 23.025956 2.883925 -5.253720
v 5.950000 5.437413 -2.540784
v 25.739900 2.325276 3.761468
v 5.951937 -1.743546 -5.733226
v 5.951937 2.165829 5.596861
v 22.946533 3.920916 4.559870
v 25.739900 -4.216729 1.288285
v 23.025956 -3.976976 4.478400
v 5.951937 -5.493473 2.405582
v 22.946533 -0.386496 -5.972980
v 25.739900 3.682326 -2.461642
v 23.025956 -5.493473 -2.380172
v 22.946533 4.878765 -3.498633
v 5.951937 -4.695072 -3.738386
v 5.951937 -0.866003 5.916920
v 5.950000 5.916920 0.889084
v 22.946533 5.596861 2.165829
v 22.946533 1.366263 5.836614
v 25.739900 -1.183734 4.239811
v 25.739900 -3.498633 -2.700231
v 5.951937 3.841774 -4.615930
v 22.946533 5.836614 -1.344345
v 22.946533 -5.174578 3.043372
v 22.946533 -2.540784 5.437413
v 5.951937 1.048532 -5.892674
v 5.951937 -5.972980 -0.306190
v 25.739900 4.080363 1.686322
v 5.951937 3.920916 4.559870
v 22.946533 -5.892674 -1.104592
v 25.739900 1.288285 -4.216729
v 22.946533 1.447733 -5.811204
v 6.031360 -4.615930 3.840610
v 5.951937 -3.418327 -4.934825
v 5.950000 5.916920 -0.864839
v 22.946533 -2.221889 -5.573779
v 22.946533 -4.693908 -3.738386
v 22.946533 2.724477 5.358271
v 22.946533 4.559870 3.920916
v 5.951937 0.889084 5.916920
v 5.951937 -2.142747 5.596861
v 25.739900 -2.779373 3.441409
v 23.025956 3.920916 -4.534460
v 5.951937 4.639011 -3.817528
v 5.951937 -0.307354 -5.972980
v 5.951937 -5.892674 1.048532
v 25.739900 -4.376176 -0.465638
v 22.946533 -5.733226 1.766628
v 25.739900 4.320116 -0.864839
v 22.946533 5.437413 -2.540784
v 5.951937 -5.094272 -3.179738
v 5.950000 5.596861 2.165829
v 25.739900 0.889084 4.320116
v 22.946533 5.836614 1.366263
v 22.946533 -5.972980 0.330436
v 22.946533 -1.662077 5.755144
v 22.946533 0.409578 -5.972980
v 25.739900 -2.221889 -3.817528
v 22.946533 -1.104592 -5.892674
v 23.025956 -3.817528 -4.615930
v 5.951937 3.123678 5.118518
v 22.946533 5.118518 3.123678
v 22.946533 -4.615930 3.840610
v 25.739900 2.484724 -3.658081
v 23.025956 0.808779 5.916920
v 5.951937 4.559870 3.920916
v 22.946533 -3.020290 5.197660
v 5.950000 5.755144 -1.662077
v 25.739900 3.362267 2.883925
v 5.951937 -3.020290 -5.174578
v 5.950000 5.197660 -3.020290
v 25.739900 -3.658081 2.484724
v 22.946533 -5.094272 -3.179738
v 5.951937 -3.020290 5.197660
v 5.951937 3.043372 -5.174578
v 22.946533 5.916920 -0.945144
v 5.951937 -5.174578 3.043372
v 22.946533 2.005217 -5.652921
v 25.739900 0.489884 -4.376176
v 5.951937 -1.104592 -5.892674
v 5.951937 -3.738386 -4.693908
v 25.739900 4.320116 0.889084
v 22.946533 3.521715 -4.855683
v 6.031360 -5.573779 -2.221889
v 5.951937 -5.892674 -1.104592
v 5.951937 2.006381 -5.652921
v 25.499693 -4.216729 -1.742382
v 22.946533 -5.972980 -0.386496
v 22.946533 2.165829 5.596861
v 23.025956 -5.414331 2.563866
v 23.025956 4.559870 -3.896670
v 22.946533 -5.733226 -1.742382
v 5.951937 -2.221889 -5.573779
v 23.025956 5.677166 -1.901830
v 5.951937 -3.817528 4.637848
v 5.951937 1.687486 5.755144
v 5.950000 5.755144 1.686322
v 25.739900 -0.067601 4.400422
v 5.951937 -1.344345 5.836614
v 5.951937 -5.652921 2.005217
v 22.946533 -3.498633 4.878765
v 22.946533 5.916920 0.889084
v 22.946533 -3.179738 -5.094272
v 5.951937 0.330436 -5.972980
v 5.951937 -5.972980 0.330436
v 23.025956 3.361103 4.957907
v 22.946533 5.197660 -3.020290
v 25.658540 -1.821524 4.080363
v 22.946533 -0.945144 5.916920
v 23.025956 -4.855683 3.521715
f 99 81 119 
f 13 17 21 
f 12 6 26 
f 17 13 29 
f 21 17 30 
f 13 21 37 
f 21 30 40 
f 26 2 44 
f 12 26 44 
f 38 16 48 
f 6 25 49 
f 25 7 49 
f 17 29 51 
f 17 9 56 
f 30 17 56 
f 9 17 57 
f 55 9 57 
f 37 21 58 
f 26 6 61 
f 6 27 61 
f 29 13 62 
f 9 55 64 
f 56 9 64 
f 29 7 65 
f 50 34 65 
f 35 41 66 
f 20 54 66 
f 40 30 67 
f 45 1 67 
f 20 1 68 
f 1 45 68 
f 45 14 68 
f 46 24 69 
f 30 46 69 
f 67 30 69 
f 6 15 70 
f 38 6 70 
f 15 47 70 
f 27 6 71 
f 37 27 71 
f 6 48 71 
f 40 11 73 
f 21 40 73 
f 11 52 73 
f 49 7 74 
f 28 49 74 
f 62 28 74 
f 6 38 75 
f 48 6 75 
f 38 48 75 
f 12 44 77 
f 44 32 77 
f 16 13 78 
f 13 37 78 
f 48 16 78 
f 37 71 78 
f 71 48 78 
f 6 12 80 
f 36 6 80 
f 23 53 80 
f 53 31 80 
f 12 59 80 
f 60 8 80 
f 24 60 80 
f 79 43 80 
f 17 51 81 
f 24 46 82 
f 46 30 82 
f 60 24 82 
f 6 4 83 
f 50 6 83 
f 34 50 83 
f 4 76 83 
f 76 34 83 
f 11 5 84 
f 5 80 84 
f 80 31 84 
f 2 3 85 
f 44 2 85 
f 32 44 85 
f 3 58 85 
f 58 32 85 
f 6 19 86 
f 19 33 86 
f 5 11 87 
f 11 40 87 
f 40 41 87 
f 1 20 88 
f 41 40 88 
f 20 66 88 
f 66 41 88 
f 67 1 88 
f 40 67 88 
f 54 20 89 
f 20 68 89 
f 68 14 89 
f 14 80 89 
f 80 54 89 
f 43 10 90 
f 10 69 90 
f 69 24 90 
f 24 80 90 
f 80 43 90 
f 3 2 91 
f 27 37 91 
f 58 3 91 
f 37 58 91 
f 63 27 91 
f 52 11 92 
f 31 52 92 
f 11 84 92 
f 84 31 92 
f 8 60 93 
f 82 22 93 
f 60 82 93 
f 8 39 94 
f 36 80 94 
f 80 8 94 
f 41 35 95 
f 80 5 95 
f 35 80 95 
f 5 87 95 
f 87 41 95 
f 30 56 96 
f 56 39 96 
f 22 82 96 
f 82 30 96 
f 39 56 97 
f 64 36 97 
f 56 64 97 
f 94 39 97 
f 36 94 97 
f 13 47 98 
f 47 15 98 
f 28 62 98 
f 62 13 98 
f 33 19 99 
f 57 17 99 
f 19 57 99 
f 17 81 99 
f 52 31 100 
f 53 23 100 
f 31 53 100 
f 21 73 100 
f 73 52 100 
f 39 8 101 
f 8 93 101 
f 93 22 101 
f 22 96 101 
f 96 39 101 
f 14 45 102 
f 45 79 102 
f 80 14 102 
f 79 80 102 
f 32 58 103 
f 58 21 103 
f 59 12 103 
f 21 59 103 
f 12 77 103 
f 77 32 103 
f 4 6 104 
f 72 18 104 
f 42 72 104 
f 6 86 104 
f 86 42 104 
f 15 6 105 
f 6 49 105 
f 49 28 105 
f 98 15 105 
f 28 98 105 
f 26 61 106 
f 61 27 106 
f 63 26 106 
f 27 63 106 
f 7 29 107 
f 29 62 107 
f 74 7 107 
f 62 74 107 
f 25 6 108 
f 6 50 108 
f 50 65 108 
f 19 6 109 
f 6 55 109 
f 57 19 109 
f 55 57 109 
f 18 51 110 
f 76 4 110 
f 51 76 110 
f 4 104 110 
f 104 18 110 
f 2 26 111 
f 26 63 111 
f 91 2 111 
f 63 91 111 
f 10 43 112 
f 45 67 112 
f 69 10 112 
f 67 69 112 
f 43 79 112 
f 79 45 112 
f 35 66 113 
f 66 54 113 
f 80 35 113 
f 54 80 113 
f 6 36 114 
f 55 6 114 
f 36 64 114 
f 64 55 114 
f 13 16 115 
f 16 38 115 
f 47 13 115 
f 38 70 115 
f 70 47 115 
f 59 21 116 
f 23 80 116 
f 80 59 116 
f 21 100 116 
f 100 23 116 
f 51 29 117 
f 29 65 117 
f 65 34 117 
f 34 76 117 
f 76 51 117 
f 7 25 118 
f 65 7 118 
f 25 108 118 
f 108 65 118 
f 51 18 119 
f 18 72 119 
f 72 42 119 
f 81 51 119 
f 86 33 119 
f 42 86 119 
f 33 99 119 
o convex_1
v -4.742240 -5.892447 -7.010353
v 5.948836 -0.067929 -0.546717
v 5.950000 -1.026067 -0.546717
v 5.869695 -0.067929 -8.925318
v 5.789390 -8.925364 -1.106865
v -3.066304 -0.148961 -0.546717
v -5.939837 -8.525547 -0.546717
v -5.939837 -0.067929 -8.525453
v 5.869695 -5.892447 -6.770772
v -4.582794 -8.205870 -4.218049
v -4.582794 -2.861311 -8.765878
v 5.950000 -8.844332 -0.546717
v 3.874865 -3.898701 -8.366857
v -5.939837 -0.067929 -6.370907
v 3.954007 -7.887085 -4.776510
v -5.939837 -5.493520 -6.611332
v -5.939837 -6.371517 -0.546717
v -4.582794 -9.083867 -1.505043
v -4.582794 -0.866674 -9.164899
v 3.874865 -8.765081 -2.861546
v 3.874865 -1.505136 -9.084757
v 5.950000 -3.180988 -8.285871
v 3.874865 -6.530909 -6.531191
v -4.582794 -7.168481 -5.813290
v 5.789390 -7.967226 -4.218049
v -4.582794 -4.774916 -7.887694
v 3.954007 -9.164899 -0.546717
v -5.939837 -7.807833 -3.580290
v -4.663099 -0.067929 -9.164899
v -4.582794 -9.164899 -0.546717
v -5.939837 -2.782060 -8.126432
v 3.954007 -5.493520 -7.408531
v -2.987163 -0.067929 -0.546717
v 3.954007 -0.067929 -9.164899
v -4.582794 -8.765081 -2.861546
v -4.582794 -5.813196 -7.169793
v 5.950000 -6.929837 -5.572865
v 3.874865 -2.861311 -8.765878
v 5.948836 -0.067929 -8.845176
v 3.874865 -9.083867 -1.505043
v 5.789390 -1.983315 -8.765034
v 5.789390 -4.616414 -7.727411
v 3.874865 -7.168481 -5.813290
v 3.874865 -8.286012 -4.058609
v -5.939837 -6.929837 -5.094546
v -4.582794 -4.058984 -8.286715
v -4.582794 -2.302991 -8.925318
v 5.789390 -8.684939 -2.382383
v -4.582794 -6.530909 -6.531191
v -5.939837 -8.366154 -1.904064
v 5.789390 -7.009979 -5.653007
v 3.874865 -4.774916 -7.887694
v -5.939837 -4.218377 -7.488673
v 5.789390 -3.100846 -8.446155
v 3.874865 -8.925364 -2.303085
v 3.874865 -0.866674 -9.164899
v -4.582794 -7.887085 -4.776510
v -5.859531 -1.265602 -8.525453
f 166 150 177 
f 122 121 125 
f 122 125 126 
f 121 123 127 
f 122 126 131 
f 121 127 133 
f 127 126 133 
f 126 127 135 
f 126 125 136 
f 125 133 136 
f 133 126 136 
f 122 131 141 
f 124 131 146 
f 131 126 146 
f 126 135 147 
f 127 123 148 
f 126 137 149 
f 146 126 149 
f 137 146 149 
f 135 127 150 
f 128 142 151 
f 125 121 152 
f 121 133 152 
f 133 125 152 
f 148 123 153 
f 138 148 153 
f 147 129 154 
f 120 135 155 
f 135 145 155 
f 151 142 155 
f 145 151 155 
f 141 131 156 
f 128 141 156 
f 132 130 157 
f 121 122 158 
f 123 121 158 
f 122 141 158 
f 124 146 159 
f 146 137 159 
f 157 140 160 
f 123 158 160 
f 158 141 160 
f 141 128 161 
f 128 151 161 
f 134 143 162 
f 143 142 162 
f 129 134 163 
f 144 139 163 
f 134 144 163 
f 154 129 163 
f 139 154 163 
f 147 135 164 
f 130 132 165 
f 150 130 165 
f 138 140 166 
f 130 150 166 
f 157 130 166 
f 140 157 166 
f 131 124 167 
f 139 144 167 
f 156 131 167 
f 144 156 167 
f 124 159 167 
f 135 120 168 
f 142 143 168 
f 120 155 168 
f 155 142 168 
f 143 164 168 
f 164 135 168 
f 137 126 169 
f 126 147 169 
f 154 137 169 
f 147 154 169 
f 142 128 170 
f 144 134 170 
f 128 156 170 
f 156 144 170 
f 162 142 170 
f 134 162 170 
f 151 145 171 
f 132 161 171 
f 161 151 171 
f 165 132 171 
f 145 165 171 
f 145 135 172 
f 135 150 172 
f 165 145 172 
f 150 165 172 
f 132 157 173 
f 157 160 173 
f 160 141 173 
f 141 161 173 
f 161 132 173 
f 137 154 174 
f 154 139 174 
f 159 137 174 
f 139 167 174 
f 167 159 174 
f 140 138 175 
f 153 123 175 
f 138 153 175 
f 123 160 175 
f 160 140 175 
f 134 129 176 
f 143 134 176 
f 129 147 176 
f 164 143 176 
f 147 164 176 
f 127 148 177 
f 148 138 177 
f 150 127 177 
f 138 166 177 
o convex_2
v -5.779226 4.639027 -7.328389
v 3.954007 9.108839 -0.546717
v 5.869695 8.868101 -0.546717
v -2.987163 -0.067929 -0.546717
v 5.869695 -0.067031 -8.925318
v 5.950000 -0.067031 -0.546717
v -5.939837 8.549214 -0.546717
v -5.939837 -0.067929 -8.525453
v 3.874865 7.033826 -5.972730
v -4.582794 8.389321 -3.819028
v 5.789390 3.284430 -8.366013
v -4.582794 3.523371 -8.526296
v -5.939837 -0.067929 -6.370907
v 5.948836 7.911440 -3.978468
v -4.582794 5.915475 -7.089652
v -5.939837 6.315207 -0.546717
v -4.582794 0.810583 -9.164899
v 3.874865 4.798920 -7.887694
v 3.874865 8.629161 -3.260567
v -4.582794 9.108839 -1.344759
v 3.874865 1.927138 -9.003772
v -5.939837 7.032927 -4.935106
v 5.950000 5.436694 -7.009510
v -4.582794 7.592552 -5.253986
v 3.954007 -0.067929 -9.164899
v 3.874865 7.991386 -4.617914
v -4.663099 -0.067929 -9.164899
v -5.939837 2.246923 -8.285871
v 3.874865 8.948048 -2.222943
v 3.874865 3.523371 -8.526296
v -4.742240 9.108839 -0.546717
v 5.950000 -0.067031 -8.844332
v 3.874865 5.915475 -7.089652
v -4.582794 8.789053 -2.781404
v 5.789390 7.112874 -5.493567
v -4.582794 2.565811 -8.845176
v 5.948836 8.629161 -1.904064
v -4.582794 5.038759 -7.728254
v -5.939837 8.150380 -2.702106
v -4.582794 7.033826 -5.972730
v 3.874865 0.890529 -9.164899
v 5.789390 1.529202 -8.844332
v -3.066304 -0.067929 -0.626859
v -5.939837 5.676534 -6.451049
v 3.874865 9.108839 -1.344759
v 5.789390 8.230327 -3.580290
v 5.789390 5.197754 -7.329233
v 5.948836 8.789053 -0.546717
v 5.789390 8.709107 -2.142802
v -4.582794 1.927138 -9.003772
v 3.874865 7.592552 -5.253986
v 5.789390 5.916373 -6.770772
v -4.582794 7.991386 -4.617914
f 216 187 230 
f 180 179 181 
f 180 181 183 
f 181 179 184 
f 185 181 190 
f 184 185 190 
f 181 184 193 
f 184 190 193 
f 185 184 199 
f 183 181 202 
f 181 185 202 
f 187 196 203 
f 185 194 204 
f 202 185 204 
f 194 202 204 
f 178 189 205 
f 194 185 205 
f 185 199 205 
f 195 188 207 
f 189 195 207 
f 188 198 207 
f 184 179 208 
f 179 197 208 
f 197 184 208 
f 200 183 209 
f 188 200 209 
f 202 182 209 
f 183 202 209 
f 192 186 210 
f 196 187 211 
f 206 196 211 
f 197 206 211 
f 191 200 212 
f 205 189 213 
f 189 207 213 
f 207 198 213 
f 200 191 214 
f 189 178 215 
f 178 192 215 
f 195 189 215 
f 192 210 215 
f 210 195 215 
f 184 197 216 
f 199 184 216 
f 211 187 216 
f 197 211 216 
f 186 192 217 
f 201 186 217 
f 199 201 217 
f 182 202 218 
f 202 194 218 
f 198 188 219 
f 209 182 219 
f 188 209 219 
f 182 218 219 
f 218 198 219 
f 190 181 220 
f 181 193 220 
f 193 190 220 
f 192 178 221 
f 178 205 221 
f 205 199 221 
f 217 192 221 
f 199 217 221 
f 179 180 222 
f 197 179 222 
f 206 197 222 
f 203 196 223 
f 191 212 223 
f 212 203 223 
f 214 191 223 
f 188 195 224 
f 200 188 224 
f 195 210 224 
f 180 183 225 
f 183 200 225 
f 214 180 225 
f 200 214 225 
f 196 206 226 
f 180 214 226 
f 222 180 226 
f 206 222 226 
f 223 196 226 
f 214 223 226 
f 194 205 227 
f 213 198 227 
f 205 213 227 
f 198 218 227 
f 218 194 227 
f 186 201 228 
f 201 203 228 
f 212 186 228 
f 203 212 228 
f 210 186 229 
f 212 200 229 
f 186 212 229 
f 200 224 229 
f 224 210 229 
f 201 199 230 
f 187 203 230 
f 203 201 230 
f 199 216 230 
o convex_3
v -5.381199 -5.174750 7.192399
v -5.939844 -8.525390 -0.546717
v -5.859539 -8.605876 -0.306597
v 5.948836 -0.228400 -0.546717
v 5.869695 -8.365294 3.204686
v 5.789390 -0.227525 8.948516
v -5.939844 -0.227525 6.394856
v -2.987169 -0.227525 -0.544811
v 5.950000 -8.844707 -0.546717
v 5.948836 -5.333971 7.113311
v -4.582801 -8.446655 3.683021
v -4.582801 -1.345572 9.107644
v 3.874864 -5.254360 7.591646
v -5.939844 -0.227525 8.549269
v -5.939844 -6.370657 -0.546717
v -4.582801 -9.164899 0.890193
v 3.874864 -7.088902 5.915568
v -4.582801 -5.573677 7.352479
v 3.874864 -3.021767 8.708396
v -5.939844 -6.850070 5.197113
v 3.874864 -9.084414 1.529561
v -4.582801 -3.818747 8.390141
v -4.582801 -7.329483 5.597314
v -4.582801 -9.164899 -0.546717
v 3.954005 -8.446655 3.683974
v 3.874864 -0.227525 9.187684
v 5.948836 -1.585278 8.708396
v -5.939844 -2.942156 8.070934
v 3.954005 -9.164899 -0.544811
v -4.582801 -0.227525 9.187684
v -5.939844 -8.286559 2.247064
v 5.789390 -7.248998 5.357193
v -4.582801 -8.845582 2.566271
v 3.874864 -7.886757 4.798818
v 5.789390 -3.819621 8.150021
v 3.874864 -1.824110 9.027604
v -4.582801 -2.781185 8.788436
v 5.789390 -8.925193 1.129361
v 3.874864 -5.972605 7.033271
v -4.663106 -6.370657 6.634024
v 3.874864 -4.616601 7.989941
v 5.948836 -0.228400 8.789389
v 3.954005 -8.845582 2.566271
v -3.066310 -0.308010 -0.544811
v -4.582801 -7.886757 4.798818
v -4.582801 -4.616601 7.989941
v 5.789390 -5.732898 6.953231
v -5.939844 -5.653288 6.474896
v 3.874864 -9.164899 0.891146
v 5.789390 -2.223912 8.709349
v 5.950000 -7.807146 4.240443
v -5.939844 -7.727535 3.763061
v 3.874864 -3.659526 8.469229
v 3.874864 -0.546842 9.187684
v -4.582801 -9.004803 1.927856
f 273 263 285 
f 237 236 238 
f 236 234 238 
f 232 234 239 
f 237 232 244 
f 236 237 244 
f 234 232 245 
f 232 237 245 
f 238 234 245 
f 244 232 250 
f 233 232 254 
f 232 239 254 
f 246 233 254 
f 236 244 256 
f 242 244 258 
f 244 250 258 
f 254 239 259 
f 246 254 259 
f 244 242 260 
f 256 244 260 
f 232 233 261 
f 233 246 261 
f 250 232 261 
f 255 241 263 
f 241 261 263 
f 247 253 264 
f 255 235 264 
f 262 247 264 
f 240 257 265 
f 242 258 267 
f 258 252 267 
f 266 242 267 
f 249 266 267 
f 239 235 268 
f 259 239 268 
f 243 248 269 
f 253 247 270 
f 250 253 270 
f 269 248 270 
f 247 269 270 
f 243 265 271 
f 234 236 272 
f 236 257 272 
f 235 255 273 
f 255 263 273 
f 268 235 273 
f 251 268 273 
f 237 238 274 
f 245 237 274 
f 238 245 274 
f 253 250 275 
f 241 255 275 
f 264 253 275 
f 255 264 275 
f 248 243 276 
f 231 248 276 
f 258 231 276 
f 252 258 276 
f 243 271 276 
f 271 252 276 
f 262 240 277 
f 247 262 277 
f 240 265 277 
f 265 243 277 
f 243 269 277 
f 269 247 277 
f 248 231 278 
f 258 250 278 
f 231 258 278 
f 270 248 278 
f 250 270 278 
f 251 246 279 
f 246 259 279 
f 268 251 279 
f 259 268 279 
f 257 236 280 
f 249 265 280 
f 265 257 280 
f 266 249 280 
f 239 234 281 
f 235 239 281 
f 257 240 281 
f 240 262 281 
f 264 235 281 
f 262 264 281 
f 234 272 281 
f 272 257 281 
f 261 241 282 
f 250 261 282 
f 241 275 282 
f 275 250 282 
f 265 249 283 
f 249 267 283 
f 267 252 283 
f 252 271 283 
f 271 265 283 
f 236 256 284 
f 260 242 284 
f 256 260 284 
f 242 266 284 
f 280 236 284 
f 266 280 284 
f 246 251 285 
f 261 246 285 
f 263 261 285 
f 251 273 285 
o convex_4
v -5.540698 6.634586 5.756441
v -5.939899 6.314753 -0.546717
v -5.939899 -0.227525 6.394856
v 5.950000 -0.227525 -0.546717
v 5.869695 6.633664 5.995608
v 5.789389 -0.226603 8.948516
v 5.869695 8.868804 -0.546717
v -2.987210 -0.227525 -0.544811
v -4.582849 2.485981 8.868476
v -4.582849 9.108448 1.369481
v -5.939899 -0.227525 8.549269
v 3.874854 4.480556 8.069981
v 3.874854 8.310250 4.003182
v -5.939899 8.548972 -0.546717
v -4.582849 6.953497 6.075649
v 5.950000 2.326526 8.549269
v -5.939899 4.321101 7.431566
v 5.948836 8.709349 1.528609
v -4.582849 4.878733 7.830814
v -4.582849 8.390438 3.843101
v -4.582849 -0.227525 9.187684
v 3.874854 1.847238 9.027604
v 3.874854 9.027338 1.848769
v -4.582849 9.188637 -0.544811
v 3.874854 6.156220 6.873191
v -5.939899 7.991339 3.125599
v 3.874854 7.511130 5.357193
v 3.874854 9.188637 -0.544811
v 5.789389 8.149873 3.763061
v 5.789389 4.798545 7.591646
v 3.874854 -0.227525 9.187684
v 5.950000 -0.227525 8.789389
v 3.874854 3.443635 8.549269
v -4.582849 1.368872 9.107644
v -4.582849 3.843656 8.389189
v -4.582849 7.831884 4.878858
v -4.582849 6.076031 6.953231
v 3.874854 9.188637 0.571939
v -5.939899 2.406714 8.230061
v -4.582849 8.868804 2.487184
v 3.874854 8.709349 3.045559
v 3.874854 0.570674 9.187684
v 3.874854 5.358021 7.511606
v 5.948836 8.789538 -0.546717
v -5.939899 6.953497 5.037986
v 5.950000 5.596743 6.873191
v 5.789389 2.486903 8.629309
v 5.789389 8.788616 1.768729
v -5.939899 8.469705 1.369481
v 3.874854 6.874230 6.154736
v -4.582849 9.188637 0.491899
v 5.789389 1.368872 8.868476
v -5.939899 5.757121 6.394856
v 5.789389 7.591318 4.798818
v 3.874854 8.069684 4.479611
v 5.789389 3.604012 8.230061
f 318 332 341 
f 289 287 292 
f 288 287 293 
f 289 288 293 
f 287 289 293 
f 287 288 296 
f 288 289 296 
f 292 287 299 
f 287 296 299 
f 299 296 302 
f 296 289 306 
f 292 299 309 
f 299 302 311 
f 292 309 313 
f 290 303 314 
f 306 289 316 
f 289 301 317 
f 316 289 317 
f 291 316 317 
f 294 307 318 
f 296 306 319 
f 307 294 319 
f 297 304 320 
f 304 302 320 
f 294 318 320 
f 318 297 320 
f 305 311 321 
f 300 312 321 
f 310 300 322 
f 295 308 323 
f 292 313 323 
f 313 309 323 
f 302 296 324 
f 319 294 324 
f 296 319 324 
f 294 320 324 
f 320 302 324 
f 308 295 325 
f 311 305 325 
f 305 298 326 
f 298 314 326 
f 325 305 326 
f 308 325 326 
f 316 291 327 
f 306 316 327 
f 319 306 327 
f 307 319 327 
f 304 297 328 
f 297 315 328 
f 315 310 328 
f 322 304 328 
f 310 322 328 
f 289 292 329 
f 292 303 329 
f 286 300 330 
f 311 302 330 
f 300 321 330 
f 321 311 330 
f 301 289 331 
f 303 290 331 
f 290 310 331 
f 310 315 331 
f 289 329 331 
f 329 303 331 
f 318 307 332 
f 303 292 333 
f 314 303 333 
f 292 323 333 
f 323 308 333 
f 308 326 333 
f 326 314 333 
f 299 311 334 
f 325 295 334 
f 311 325 334 
f 310 290 335 
f 300 310 335 
f 290 312 335 
f 312 300 335 
f 309 299 336 
f 295 323 336 
f 323 309 336 
f 299 334 336 
f 334 295 336 
f 317 301 337 
f 291 317 337 
f 327 291 337 
f 307 327 337 
f 301 332 337 
f 332 307 337 
f 300 286 338 
f 302 304 338 
f 322 300 338 
f 304 322 338 
f 286 330 338 
f 330 302 338 
f 312 290 339 
f 290 314 339 
f 339 314 340 
f 298 305 340 
f 314 298 340 
f 305 321 340 
f 321 312 340 
f 312 339 340 
f 315 297 341 
f 297 318 341 
f 301 331 341 
f 331 315 341 
f 332 301 341 
